<svg aria-hidden="true" style="position: absolute; width: 0; height: 0; overflow: hidden;" version="1.1" xmlns="http://www.w3.org/2000/svg" xmlns:xlink="http://www.w3.org/1999/xlink">
<defs>
<symbol id="icon-shopping-card" viewBox="0 0 31 32">
<path d="M21.76 23.68c0.679 0 1.33 0.27 1.81 0.75s0.75 1.131 0.75 1.81c0 0.679-0.27 1.33-0.75 1.81s-1.131 0.75-1.81 0.75c-0.679 0-1.33-0.27-1.81-0.75s-0.75-1.131-0.75-1.81c0-1.421 1.139-2.56 2.56-2.56zM1.28 3.2h4.186l1.203 2.56h18.931c0.339 0 0.665 0.135 0.905 0.375s0.375 0.566 0.375 0.905c0 0.218-0.064 0.435-0.154 0.64l-4.582 8.282c-0.435 0.781-1.28 1.318-2.24 1.318h-9.536l-1.152 2.086-0.038 0.154c0 0.085 0.034 0.166 0.094 0.226s0.141 0.094 0.226 0.094h14.822v2.56h-15.36c-0.679 0-1.33-0.27-1.81-0.75s-0.75-1.131-0.75-1.81c0-0.448 0.115-0.87 0.307-1.229l1.741-3.136-4.608-9.715h-2.56v-2.56zM8.96 23.68c0.679 0 1.33 0.27 1.81 0.75s0.75 1.131 0.75 1.81c0 0.679-0.27 1.33-0.75 1.81s-1.131 0.75-1.81 0.75c-0.679 0-1.33-0.27-1.81-0.75s-0.75-1.131-0.75-1.81c0-1.421 1.139-2.56 2.56-2.56zM20.48 14.72l3.558-6.4h-16.179l3.021 6.4h9.6z"></path>
</symbol>
</defs>
</svg>
